<svg xmlns="http://www.w3.org/2000/svg" viewBox="0 0 1090.00 460.00">
  <style>
    .key-bg { fill: #f5f5f5; stroke: #d4d4d4; stroke-width: 1; }
    .key-index { fill: #171717; font-family: ui-monospace, SFMono-Regular, "SF Mono", Menlo, Consolas, "Liberation Mono", monospace; font-weight: 700; text-anchor: middle; dominant-baseline: central; }
    .key-part { font-family: system-ui, -apple-system, BlinkMacSystemFont, "Segoe UI", Roboto, sans-serif; text-anchor: middle; dominant-baseline: central; }
    @media (prefers-color-scheme: dark) {
      .key-bg { fill: #2a2a2a; stroke: #404040; }
      .key-index { fill: #e5e5e5; }
    }
    .key-bg.part-0 { stroke: #f59e0b; }
    .key-part.part-0 { fill: #f59e0b; }
    .key-bg.part-1 { stroke: #14b8a6; }
    .key-part.part-1 { fill: #14b8a6; }
  </style>
  <g>
    <path class="key-bg part-0" d="M 26.00,22.00 L 84.00,22.00 Q 88.00,22.00 88.00,26.00 L 88.00,84.00 Q 88.00,88.00 84.00,88.00 L 26.00,88.00 Q 22.00,88.00 22.00,84.00 L 22.00,26.00 Q 22.00,22.00 26.00,22.00 Z" />
    <path class="key-bg part-0" d="M 96.00,22.00 L 154.00,22.00 Q 158.00,22.00 158.00,26.00 L 158.00,84.00 Q 158.00,88.00 154.00,88.00 L 96.00,88.00 Q 92.00,88.00 92.00,84.00 L 92.00,26.00 Q 92.00,22.00 96.00,22.00 Z" />
    <path class="key-bg part-0" d="M 166.00,22.00 L 224.00,22.00 Q 228.00,22.00 228.00,26.00 L 228.00,84.00 Q 228.00,88.00 224.00,88.00 L 166.00,88.00 Q 162.00,88.00 162.00,84.00 L 162.00,26.00 Q 162.00,22.00 166.00,22.00 Z" />
    <path class="key-bg part-0" d="M 236.00,22.00 L 294.00,22.00 Q 298.00,22.00 298.00,26.00 L 298.00,84.00 Q 298.00,88.00 294.00,88.00 L 236.00,88.00 Q 232.00,88.00 232.00,84.00 L 232.00,26.00 Q 232.00,22.00 236.00,22.00 Z" />
    <path class="key-bg part-0" d="M 306.00,22.00 L 364.00,22.00 Q 368.00,22.00 368.00,26.00 L 368.00,84.00 Q 368.00,88.00 364.00,88.00 L 306.00,88.00 Q 302.00,88.00 302.00,84.00 L 302.00,26.00 Q 302.00,22.00 306.00,22.00 Z" />
    <path class="key-bg part-1" d="M 726.00,22.00 L 784.00,22.00 Q 788.00,22.00 788.00,26.00 L 788.00,84.00 Q 788.00,88.00 784.00,88.00 L 726.00,88.00 Q 722.00,88.00 722.00,84.00 L 722.00,26.00 Q 722.00,22.00 726.00,22.00 Z" />
    <path class="key-bg part-1" d="M 796.00,22.00 L 854.00,22.00 Q 858.00,22.00 858.00,26.00 L 858.00,84.00 Q 858.00,88.00 854.00,88.00 L 796.00,88.00 Q 792.00,88.00 792.00,84.00 L 792.00,26.00 Q 792.00,22.00 796.00,22.00 Z" />
    <path class="key-bg part-1" d="M 866.00,22.00 L 924.00,22.00 Q 928.00,22.00 928.00,26.00 L 928.00,84.00 Q 928.00,88.00 924.00,88.00 L 866.00,88.00 Q 862.00,88.00 862.00,84.00 L 862.00,26.00 Q 862.00,22.00 866.00,22.00 Z" />
    <path class="key-bg part-1" d="M 936.00,22.00 L 994.00,22.00 Q 998.00,22.00 998.00,26.00 L 998.00,84.00 Q 998.00,88.00 994.00,88.00 L 936.00,88.00 Q 932.00,88.00 932.00,84.00 L 932.00,26.00 Q 932.00,22.00 936.00,22.00 Z" />
    <path class="key-bg part-1" d="M 1006.00,22.00 L 1064.00,22.00 Q 1068.00,22.00 1068.00,26.00 L 1068.00,84.00 Q 1068.00,88.00 1064.00,88.00 L 1006.00,88.00 Q 1002.00,88.00 1002.00,84.00 L 1002.00,26.00 Q 1002.00,22.00 1006.00,22.00 Z" />
    <path class="key-bg part-0" d="M 26.00,92.00 L 84.00,92.00 Q 88.00,92.00 88.00,96.00 L 88.00,154.00 Q 88.00,158.00 84.00,158.00 L 26.00,158.00 Q 22.00,158.00 22.00,154.00 L 22.00,96.00 Q 22.00,92.00 26.00,92.00 Z" />
    <path class="key-bg part-0" d="M 96.00,92.00 L 154.00,92.00 Q 158.00,92.00 158.00,96.00 L 158.00,154.00 Q 158.00,158.00 154.00,158.00 L 96.00,158.00 Q 92.00,158.00 92.00,154.00 L 92.00,96.00 Q 92.00,92.00 96.00,92.00 Z" />
    <path class="key-bg part-0" d="M 166.00,92.00 L 224.00,92.00 Q 228.00,92.00 228.00,96.00 L 228.00,154.00 Q 228.00,158.00 224.00,158.00 L 166.00,158.00 Q 162.00,158.00 162.00,154.00 L 162.00,96.00 Q 162.00,92.00 166.00,92.00 Z" />
    <path class="key-bg part-0" d="M 236.00,92.00 L 294.00,92.00 Q 298.00,92.00 298.00,96.00 L 298.00,154.00 Q 298.00,158.00 294.00,158.00 L 236.00,158.00 Q 232.00,158.00 232.00,154.00 L 232.00,96.00 Q 232.00,92.00 236.00,92.00 Z" />
    <path class="key-bg part-0" d="M 306.00,92.00 L 364.00,92.00 Q 368.00,92.00 368.00,96.00 L 368.00,154.00 Q 368.00,158.00 364.00,158.00 L 306.00,158.00 Q 302.00,158.00 302.00,154.00 L 302.00,96.00 Q 302.00,92.00 306.00,92.00 Z" />
    <path class="key-bg part-1" d="M 726.00,92.00 L 784.00,92.00 Q 788.00,92.00 788.00,96.00 L 788.00,154.00 Q 788.00,158.00 784.00,158.00 L 726.00,158.00 Q 722.00,158.00 722.00,154.00 L 722.00,96.00 Q 722.00,92.00 726.00,92.00 Z" />
    <path class="key-bg part-1" d="M 796.00,92.00 L 854.00,92.00 Q 858.00,92.00 858.00,96.00 L 858.00,154.00 Q 858.00,158.00 854.00,158.00 L 796.00,158.00 Q 792.00,158.00 792.00,154.00 L 792.00,96.00 Q 792.00,92.00 796.00,92.00 Z" />
    <path class="key-bg part-1" d="M 866.00,92.00 L 924.00,92.00 Q 928.00,92.00 928.00,96.00 L 928.00,154.00 Q 928.00,158.00 924.00,158.00 L 866.00,158.00 Q 862.00,158.00 862.00,154.00 L 862.00,96.00 Q 862.00,92.00 866.00,92.00 Z" />
    <path class="key-bg part-1" d="M 936.00,92.00 L 994.00,92.00 Q 998.00,92.00 998.00,96.00 L 998.00,154.00 Q 998.00,158.00 994.00,158.00 L 936.00,158.00 Q 932.00,158.00 932.00,154.00 L 932.00,96.00 Q 932.00,92.00 936.00,92.00 Z" />
    <path class="key-bg part-1" d="M 1006.00,92.00 L 1064.00,92.00 Q 1068.00,92.00 1068.00,96.00 L 1068.00,154.00 Q 1068.00,158.00 1064.00,158.00 L 1006.00,158.00 Q 1002.00,158.00 1002.00,154.00 L 1002.00,96.00 Q 1002.00,92.00 1006.00,92.00 Z" />
    <path class="key-bg part-0" d="M 26.00,162.00 L 84.00,162.00 Q 88.00,162.00 88.00,166.00 L 88.00,224.00 Q 88.00,228.00 84.00,228.00 L 26.00,228.00 Q 22.00,228.00 22.00,224.00 L 22.00,166.00 Q 22.00,162.00 26.00,162.00 Z" />
    <path class="key-bg part-0" d="M 96.00,162.00 L 154.00,162.00 Q 158.00,162.00 158.00,166.00 L 158.00,224.00 Q 158.00,228.00 154.00,228.00 L 96.00,228.00 Q 92.00,228.00 92.00,224.00 L 92.00,166.00 Q 92.00,162.00 96.00,162.00 Z" />
    <path class="key-bg part-0" d="M 166.00,162.00 L 224.00,162.00 Q 228.00,162.00 228.00,166.00 L 228.00,224.00 Q 228.00,228.00 224.00,228.00 L 166.00,228.00 Q 162.00,228.00 162.00,224.00 L 162.00,166.00 Q 162.00,162.00 166.00,162.00 Z" />
    <path class="key-bg part-0" d="M 236.00,162.00 L 294.00,162.00 Q 298.00,162.00 298.00,166.00 L 298.00,224.00 Q 298.00,228.00 294.00,228.00 L 236.00,228.00 Q 232.00,228.00 232.00,224.00 L 232.00,166.00 Q 232.00,162.00 236.00,162.00 Z" />
    <path class="key-bg part-0" d="M 306.00,162.00 L 364.00,162.00 Q 368.00,162.00 368.00,166.00 L 368.00,224.00 Q 368.00,228.00 364.00,228.00 L 306.00,228.00 Q 302.00,228.00 302.00,224.00 L 302.00,166.00 Q 302.00,162.00 306.00,162.00 Z" />
    <path class="key-bg part-1" d="M 726.00,162.00 L 784.00,162.00 Q 788.00,162.00 788.00,166.00 L 788.00,224.00 Q 788.00,228.00 784.00,228.00 L 726.00,228.00 Q 722.00,228.00 722.00,224.00 L 722.00,166.00 Q 722.00,162.00 726.00,162.00 Z" />
    <path class="key-bg part-1" d="M 796.00,162.00 L 854.00,162.00 Q 858.00,162.00 858.00,166.00 L 858.00,224.00 Q 858.00,228.00 854.00,228.00 L 796.00,228.00 Q 792.00,228.00 792.00,224.00 L 792.00,166.00 Q 792.00,162.00 796.00,162.00 Z" />
    <path class="key-bg part-1" d="M 866.00,162.00 L 924.00,162.00 Q 928.00,162.00 928.00,166.00 L 928.00,224.00 Q 928.00,228.00 924.00,228.00 L 866.00,228.00 Q 862.00,228.00 862.00,224.00 L 862.00,166.00 Q 862.00,162.00 866.00,162.00 Z" />
    <path class="key-bg part-1" d="M 936.00,162.00 L 994.00,162.00 Q 998.00,162.00 998.00,166.00 L 998.00,224.00 Q 998.00,228.00 994.00,228.00 L 936.00,228.00 Q 932.00,228.00 932.00,224.00 L 932.00,166.00 Q 932.00,162.00 936.00,162.00 Z" />
    <path class="key-bg part-1" d="M 1006.00,162.00 L 1064.00,162.00 Q 1068.00,162.00 1068.00,166.00 L 1068.00,224.00 Q 1068.00,228.00 1064.00,228.00 L 1006.00,228.00 Q 1002.00,228.00 1002.00,224.00 L 1002.00,166.00 Q 1002.00,162.00 1006.00,162.00 Z" />
    <path class="key-bg part-0" d="M 26.00,232.00 L 84.00,232.00 Q 88.00,232.00 88.00,236.00 L 88.00,294.00 Q 88.00,298.00 84.00,298.00 L 26.00,298.00 Q 22.00,298.00 22.00,294.00 L 22.00,236.00 Q 22.00,232.00 26.00,232.00 Z" />
    <path class="key-bg part-0" d="M 96.00,232.00 L 154.00,232.00 Q 158.00,232.00 158.00,236.00 L 158.00,294.00 Q 158.00,298.00 154.00,298.00 L 96.00,298.00 Q 92.00,298.00 92.00,294.00 L 92.00,236.00 Q 92.00,232.00 96.00,232.00 Z" />
    <path class="key-bg part-0" d="M 166.00,232.00 L 224.00,232.00 Q 228.00,232.00 228.00,236.00 L 228.00,294.00 Q 228.00,298.00 224.00,298.00 L 166.00,298.00 Q 162.00,298.00 162.00,294.00 L 162.00,236.00 Q 162.00,232.00 166.00,232.00 Z" />
    <path class="key-bg part-0" d="M 236.00,232.00 L 294.00,232.00 Q 298.00,232.00 298.00,236.00 L 298.00,294.00 Q 298.00,298.00 294.00,298.00 L 236.00,298.00 Q 232.00,298.00 232.00,294.00 L 232.00,236.00 Q 232.00,232.00 236.00,232.00 Z" />
    <path class="key-bg part-0" d="M 306.00,232.00 L 364.00,232.00 Q 368.00,232.00 368.00,236.00 L 368.00,294.00 Q 368.00,298.00 364.00,298.00 L 306.00,298.00 Q 302.00,298.00 302.00,294.00 L 302.00,236.00 Q 302.00,232.00 306.00,232.00 Z" />
    <path class="key-bg part-1" d="M 726.00,232.00 L 784.00,232.00 Q 788.00,232.00 788.00,236.00 L 788.00,294.00 Q 788.00,298.00 784.00,298.00 L 726.00,298.00 Q 722.00,298.00 722.00,294.00 L 722.00,236.00 Q 722.00,232.00 726.00,232.00 Z" />
    <path class="key-bg part-1" d="M 796.00,232.00 L 854.00,232.00 Q 858.00,232.00 858.00,236.00 L 858.00,294.00 Q 858.00,298.00 854.00,298.00 L 796.00,298.00 Q 792.00,298.00 792.00,294.00 L 792.00,236.00 Q 792.00,232.00 796.00,232.00 Z" />
    <path class="key-bg part-1" d="M 866.00,232.00 L 924.00,232.00 Q 928.00,232.00 928.00,236.00 L 928.00,294.00 Q 928.00,298.00 924.00,298.00 L 866.00,298.00 Q 862.00,298.00 862.00,294.00 L 862.00,236.00 Q 862.00,232.00 866.00,232.00 Z" />
    <path class="key-bg part-1" d="M 936.00,232.00 L 994.00,232.00 Q 998.00,232.00 998.00,236.00 L 998.00,294.00 Q 998.00,298.00 994.00,298.00 L 936.00,298.00 Q 932.00,298.00 932.00,294.00 L 932.00,236.00 Q 932.00,232.00 936.00,232.00 Z" />
    <path class="key-bg part-1" d="M 1006.00,232.00 L 1064.00,232.00 Q 1068.00,232.00 1068.00,236.00 L 1068.00,294.00 Q 1068.00,298.00 1064.00,298.00 L 1006.00,298.00 Q 1002.00,298.00 1002.00,294.00 L 1002.00,236.00 Q 1002.00,232.00 1006.00,232.00 Z" />
    <path class="key-bg part-0" d="M 96.00,302.00 L 154.00,302.00 Q 158.00,302.00 158.00,306.00 L 158.00,364.00 Q 158.00,368.00 154.00,368.00 L 96.00,368.00 Q 92.00,368.00 92.00,364.00 L 92.00,306.00 Q 92.00,302.00 96.00,302.00 Z" />
    <path class="key-bg part-0" d="M 166.00,302.00 L 224.00,302.00 Q 228.00,302.00 228.00,306.00 L 228.00,364.00 Q 228.00,368.00 224.00,368.00 L 166.00,368.00 Q 162.00,368.00 162.00,364.00 L 162.00,306.00 Q 162.00,302.00 166.00,302.00 Z" />
    <path class="key-bg part-0" d="M 236.00,302.00 L 294.00,302.00 Q 298.00,302.00 298.00,306.00 L 298.00,364.00 Q 298.00,368.00 294.00,368.00 L 236.00,368.00 Q 232.00,368.00 232.00,364.00 L 232.00,306.00 Q 232.00,302.00 236.00,302.00 Z" />
    <path class="key-bg part-0" d="M 376.00,337.00 L 434.00,337.00 Q 438.00,337.00 438.00,341.00 L 438.00,399.00 Q 438.00,403.00 434.00,403.00 L 376.00,403.00 Q 372.00,403.00 372.00,399.00 L 372.00,341.00 Q 372.00,337.00 376.00,337.00 Z" />
    <path class="key-bg part-1" d="M 656.00,337.00 L 714.00,337.00 Q 718.00,337.00 718.00,341.00 L 718.00,399.00 Q 718.00,403.00 714.00,403.00 L 656.00,403.00 Q 652.00,403.00 652.00,399.00 L 652.00,341.00 Q 652.00,337.00 656.00,337.00 Z" />
    <path class="key-bg part-1" d="M 796.00,302.00 L 854.00,302.00 Q 858.00,302.00 858.00,306.00 L 858.00,364.00 Q 858.00,368.00 854.00,368.00 L 796.00,368.00 Q 792.00,368.00 792.00,364.00 L 792.00,306.00 Q 792.00,302.00 796.00,302.00 Z" />
    <path class="key-bg part-1" d="M 866.00,302.00 L 924.00,302.00 Q 928.00,302.00 928.00,306.00 L 928.00,364.00 Q 928.00,368.00 924.00,368.00 L 866.00,368.00 Q 862.00,368.00 862.00,364.00 L 862.00,306.00 Q 862.00,302.00 866.00,302.00 Z" />
    <path class="key-bg part-1" d="M 936.00,302.00 L 994.00,302.00 Q 998.00,302.00 998.00,306.00 L 998.00,364.00 Q 998.00,368.00 994.00,368.00 L 936.00,368.00 Q 932.00,368.00 932.00,364.00 L 932.00,306.00 Q 932.00,302.00 936.00,302.00 Z" />
    <path class="key-bg part-0" d="M 96.00,372.00 L 154.00,372.00 Q 158.00,372.00 158.00,376.00 L 158.00,434.00 Q 158.00,438.00 154.00,438.00 L 96.00,438.00 Q 92.00,438.00 92.00,434.00 L 92.00,376.00 Q 92.00,372.00 96.00,372.00 Z" />
    <path class="key-bg part-0" d="M 166.00,372.00 L 224.00,372.00 Q 228.00,372.00 228.00,376.00 L 228.00,434.00 Q 228.00,438.00 224.00,438.00 L 166.00,438.00 Q 162.00,438.00 162.00,434.00 L 162.00,376.00 Q 162.00,372.00 166.00,372.00 Z" />
    <path class="key-bg part-0" d="M 236.00,372.00 L 294.00,372.00 Q 298.00,372.00 298.00,376.00 L 298.00,434.00 Q 298.00,438.00 294.00,438.00 L 236.00,438.00 Q 232.00,438.00 232.00,434.00 L 232.00,376.00 Q 232.00,372.00 236.00,372.00 Z" />
    <path class="key-bg part-0" d="M 446.00,372.00 L 504.00,372.00 Q 508.00,372.00 508.00,376.00 L 508.00,434.00 Q 508.00,438.00 504.00,438.00 L 446.00,438.00 Q 442.00,438.00 442.00,434.00 L 442.00,376.00 Q 442.00,372.00 446.00,372.00 Z" />
    <path class="key-bg part-1" d="M 586.00,372.00 L 644.00,372.00 Q 648.00,372.00 648.00,376.00 L 648.00,434.00 Q 648.00,438.00 644.00,438.00 L 586.00,438.00 Q 582.00,438.00 582.00,434.00 L 582.00,376.00 Q 582.00,372.00 586.00,372.00 Z" />
    <path class="key-bg part-1" d="M 796.00,372.00 L 854.00,372.00 Q 858.00,372.00 858.00,376.00 L 858.00,434.00 Q 858.00,438.00 854.00,438.00 L 796.00,438.00 Q 792.00,438.00 792.00,434.00 L 792.00,376.00 Q 792.00,372.00 796.00,372.00 Z" />
    <path class="key-bg part-1" d="M 866.00,372.00 L 924.00,372.00 Q 928.00,372.00 928.00,376.00 L 928.00,434.00 Q 928.00,438.00 924.00,438.00 L 866.00,438.00 Q 862.00,438.00 862.00,434.00 L 862.00,376.00 Q 862.00,372.00 866.00,372.00 Z" />
    <path class="key-bg part-1" d="M 936.00,372.00 L 994.00,372.00 Q 998.00,372.00 998.00,376.00 L 998.00,434.00 Q 998.00,438.00 994.00,438.00 L 936.00,438.00 Q 932.00,438.00 932.00,434.00 L 932.00,376.00 Q 932.00,372.00 936.00,372.00 Z" />
    <path class="key-bg part-0" d="M 446.00,302.00 L 504.00,302.00 Q 508.00,302.00 508.00,306.00 L 508.00,364.00 Q 508.00,368.00 504.00,368.00 L 446.00,368.00 Q 442.00,368.00 442.00,364.00 L 442.00,306.00 Q 442.00,302.00 446.00,302.00 Z" />
    <path class="key-bg part-1" d="M 586.00,302.00 L 644.00,302.00 Q 648.00,302.00 648.00,306.00 L 648.00,364.00 Q 648.00,368.00 644.00,368.00 L 586.00,368.00 Q 582.00,368.00 582.00,364.00 L 582.00,306.00 Q 582.00,302.00 586.00,302.00 Z" />
  </g>
  <g>
    <text class="key-index" x="55.00" y="43.36" font-size="26">0</text>
    <text class="key-part part-0" x="55.00" y="70.64" font-size="18">left</text>
    <text class="key-index" x="125.00" y="43.36" font-size="26">1</text>
    <text class="key-part part-0" x="125.00" y="70.64" font-size="18">left</text>
    <text class="key-index" x="195.00" y="43.36" font-size="26">2</text>
    <text class="key-part part-0" x="195.00" y="70.64" font-size="18">left</text>
    <text class="key-index" x="265.00" y="43.36" font-size="26">3</text>
    <text class="key-part part-0" x="265.00" y="70.64" font-size="18">left</text>
    <text class="key-index" x="335.00" y="43.36" font-size="26">4</text>
    <text class="key-part part-0" x="335.00" y="70.64" font-size="18">left</text>
    <text class="key-index" x="755.00" y="43.36" font-size="26">5</text>
    <text class="key-part part-1" x="755.00" y="70.64" font-size="18">right</text>
    <text class="key-index" x="825.00" y="43.36" font-size="26">6</text>
    <text class="key-part part-1" x="825.00" y="70.64" font-size="18">right</text>
    <text class="key-index" x="895.00" y="43.36" font-size="26">7</text>
    <text class="key-part part-1" x="895.00" y="70.64" font-size="18">right</text>
    <text class="key-index" x="965.00" y="43.36" font-size="26">8</text>
    <text class="key-part part-1" x="965.00" y="70.64" font-size="18">right</text>
    <text class="key-index" x="1035.00" y="43.36" font-size="26">9</text>
    <text class="key-part part-1" x="1035.00" y="70.64" font-size="18">right</text>
    <text class="key-index" x="55.00" y="113.36" font-size="26">10</text>
    <text class="key-part part-0" x="55.00" y="140.64" font-size="18">left</text>
    <text class="key-index" x="125.00" y="113.36" font-size="26">11</text>
    <text class="key-part part-0" x="125.00" y="140.64" font-size="18">left</text>
    <text class="key-index" x="195.00" y="113.36" font-size="26">12</text>
    <text class="key-part part-0" x="195.00" y="140.64" font-size="18">left</text>
    <text class="key-index" x="265.00" y="113.36" font-size="26">13</text>
    <text class="key-part part-0" x="265.00" y="140.64" font-size="18">left</text>
    <text class="key-index" x="335.00" y="113.36" font-size="26">14</text>
    <text class="key-part part-0" x="335.00" y="140.64" font-size="18">left</text>
    <text class="key-index" x="755.00" y="113.36" font-size="26">15</text>
    <text class="key-part part-1" x="755.00" y="140.64" font-size="18">right</text>
    <text class="key-index" x="825.00" y="113.36" font-size="26">16</text>
    <text class="key-part part-1" x="825.00" y="140.64" font-size="18">right</text>
    <text class="key-index" x="895.00" y="113.36" font-size="26">17</text>
    <text class="key-part part-1" x="895.00" y="140.64" font-size="18">right</text>
    <text class="key-index" x="965.00" y="113.36" font-size="26">18</text>
    <text class="key-part part-1" x="965.00" y="140.64" font-size="18">right</text>
    <text class="key-index" x="1035.00" y="113.36" font-size="26">19</text>
    <text class="key-part part-1" x="1035.00" y="140.64" font-size="18">right</text>
    <text class="key-index" x="55.00" y="183.36" font-size="26">20</text>
    <text class="key-part part-0" x="55.00" y="210.64" font-size="18">left</text>
    <text class="key-index" x="125.00" y="183.36" font-size="26">21</text>
    <text class="key-part part-0" x="125.00" y="210.64" font-size="18">left</text>
    <text class="key-index" x="195.00" y="183.36" font-size="26">22</text>
    <text class="key-part part-0" x="195.00" y="210.64" font-size="18">left</text>
    <text class="key-index" x="265.00" y="183.36" font-size="26">23</text>
    <text class="key-part part-0" x="265.00" y="210.64" font-size="18">left</text>
    <text class="key-index" x="335.00" y="183.36" font-size="26">24</text>
    <text class="key-part part-0" x="335.00" y="210.64" font-size="18">left</text>
    <text class="key-index" x="755.00" y="183.36" font-size="26">25</text>
    <text class="key-part part-1" x="755.00" y="210.64" font-size="18">right</text>
    <text class="key-index" x="825.00" y="183.36" font-size="26">26</text>
    <text class="key-part part-1" x="825.00" y="210.64" font-size="18">right</text>
    <text class="key-index" x="895.00" y="183.36" font-size="26">27</text>
    <text class="key-part part-1" x="895.00" y="210.64" font-size="18">right</text>
    <text class="key-index" x="965.00" y="183.36" font-size="26">28</text>
    <text class="key-part part-1" x="965.00" y="210.64" font-size="18">right</text>
    <text class="key-index" x="1035.00" y="183.36" font-size="26">29</text>
    <text class="key-part part-1" x="1035.00" y="210.64" font-size="18">right</text>
    <text class="key-index" x="55.00" y="253.36" font-size="26">30</text>
    <text class="key-part part-0" x="55.00" y="280.64" font-size="18">left</text>
    <text class="key-index" x="125.00" y="253.36" font-size="26">31</text>
    <text class="key-part part-0" x="125.00" y="280.64" font-size="18">left</text>
    <text class="key-index" x="195.00" y="253.36" font-size="26">32</text>
    <text class="key-part part-0" x="195.00" y="280.64" font-size="18">left</text>
    <text class="key-index" x="265.00" y="253.36" font-size="26">33</text>
    <text class="key-part part-0" x="265.00" y="280.64" font-size="18">left</text>
    <text class="key-index" x="335.00" y="253.36" font-size="26">34</text>
    <text class="key-part part-0" x="335.00" y="280.64" font-size="18">left</text>
    <text class="key-index" x="755.00" y="253.36" font-size="26">35</text>
    <text class="key-part part-1" x="755.00" y="280.64" font-size="18">right</text>
    <text class="key-index" x="825.00" y="253.36" font-size="26">36</text>
    <text class="key-part part-1" x="825.00" y="280.64" font-size="18">right</text>
    <text class="key-index" x="895.00" y="253.36" font-size="26">37</text>
    <text class="key-part part-1" x="895.00" y="280.64" font-size="18">right</text>
    <text class="key-index" x="965.00" y="253.36" font-size="26">38</text>
    <text class="key-part part-1" x="965.00" y="280.64" font-size="18">right</text>
    <text class="key-index" x="1035.00" y="253.36" font-size="26">39</text>
    <text class="key-part part-1" x="1035.00" y="280.64" font-size="18">right</text>
    <text class="key-index" x="125.00" y="323.36" font-size="26">40</text>
    <text class="key-part part-0" x="125.00" y="350.64" font-size="18">left</text>
    <text class="key-index" x="195.00" y="323.36" font-size="26">41</text>
    <text class="key-part part-0" x="195.00" y="350.64" font-size="18">left</text>
    <text class="key-index" x="265.00" y="323.36" font-size="26">42</text>
    <text class="key-part part-0" x="265.00" y="350.64" font-size="18">left</text>
    <text class="key-index" x="405.00" y="358.36" font-size="26">43</text>
    <text class="key-part part-0" x="405.00" y="385.64" font-size="18">left</text>
    <text class="key-index" x="685.00" y="358.36" font-size="26">44</text>
    <text class="key-part part-1" x="685.00" y="385.64" font-size="18">right</text>
    <text class="key-index" x="825.00" y="323.36" font-size="26">45</text>
    <text class="key-part part-1" x="825.00" y="350.64" font-size="18">right</text>
    <text class="key-index" x="895.00" y="323.36" font-size="26">46</text>
    <text class="key-part part-1" x="895.00" y="350.64" font-size="18">right</text>
    <text class="key-index" x="965.00" y="323.36" font-size="26">47</text>
    <text class="key-part part-1" x="965.00" y="350.64" font-size="18">right</text>
    <text class="key-index" x="125.00" y="393.36" font-size="26">48</text>
    <text class="key-part part-0" x="125.00" y="420.64" font-size="18">left</text>
    <text class="key-index" x="195.00" y="393.36" font-size="26">49</text>
    <text class="key-part part-0" x="195.00" y="420.64" font-size="18">left</text>
    <text class="key-index" x="265.00" y="393.36" font-size="26">50</text>
    <text class="key-part part-0" x="265.00" y="420.64" font-size="18">left</text>
    <text class="key-index" x="475.00" y="393.36" font-size="26">51</text>
    <text class="key-part part-0" x="475.00" y="420.64" font-size="18">left</text>
    <text class="key-index" x="615.00" y="393.36" font-size="26">52</text>
    <text class="key-part part-1" x="615.00" y="420.64" font-size="18">right</text>
    <text class="key-index" x="825.00" y="393.36" font-size="26">53</text>
    <text class="key-part part-1" x="825.00" y="420.64" font-size="18">right</text>
    <text class="key-index" x="895.00" y="393.36" font-size="26">54</text>
    <text class="key-part part-1" x="895.00" y="420.64" font-size="18">right</text>
    <text class="key-index" x="965.00" y="393.36" font-size="26">55</text>
    <text class="key-part part-1" x="965.00" y="420.64" font-size="18">right</text>
    <text class="key-index" x="475.00" y="323.36" font-size="26">56</text>
    <text class="key-part part-0" x="475.00" y="350.64" font-size="18">left</text>
    <text class="key-index" x="615.00" y="323.36" font-size="26">57</text>
    <text class="key-part part-1" x="615.00" y="350.64" font-size="18">right</text>
  </g>
</svg>
